# 3ds Max Wavefront OBJ Exporter v0.99 - (c)2007 guruware
# File Created: 17.03.2025 16:48:27

mtllib colaprueba.mtl

#
# object Object
#

v  0.0743 -0.0886 -0.0774
v  0.0577 -0.0700 0.1364
v  -0.0266 0.1299 0.1505
v  -0.0101 0.1114 -0.0632
v  -0.6281 0.0507 0.0725
v  -0.6344 0.0578 0.1561
v  -0.3185 -0.0846 0.1802
v  -0.3019 -0.1032 -0.0335
v  -0.3135 0.1049 0.1836
v  -0.2970 0.0864 -0.0300
v  -0.8031 0.2199 0.1447
v  -0.6326 0.1321 0.1576
v  -0.8082 0.2098 0.1451
v  -0.6261 0.1249 0.0739
v  -0.8072 0.2086 0.1315
v  -0.8021 0.2187 0.1312
# 16 vertices

vn -0.9217 -0.3860 -0.0378
vn -0.9217 -0.3860 -0.0377
vn 0.4138 0.9091 -0.0469
vn 0.4137 0.9092 -0.0469
vn -0.0492 0.9947 -0.0904
vn 0.0973 -0.9909 0.0934
vn 0.0971 -0.9909 0.0932
vn -0.1168 0.0212 -0.9929
vn -0.1166 0.0213 -0.9930
vn 0.1166 -0.0213 0.9929
vn 0.1168 -0.0209 0.9929
vn 0.0726 0.0056 -0.9973
vn 0.0725 0.0056 -0.9974
vn -0.0914 -0.9927 0.0789
vn -0.0913 -0.9927 0.0790
vn 0.0832 0.0158 -0.9964
vn 0.0833 0.0161 -0.9964
vn 0.2981 -0.0253 0.9542
vn 0.2981 -0.0255 0.9542
vn 0.8895 -0.4442 0.1073
vn 0.2888 -0.0350 0.9567
vn 0.2888 -0.0350 0.9568
vn 0.6586 0.7524 -0.0145
vn 0.6585 0.7524 -0.0144
vn -0.4594 -0.8873 0.0413
vn -0.4592 -0.8874 0.0416
# 26 vertex normals

vt 1.0000 0.0000 0.0000
vt 1.0000 1.0000 0.0000
vt 0.0000 1.0000 0.0000
vt 0.0000 0.0000 0.0000
# 4 texture coords

o Object
g Object
usemtl Goddard_None
s off
f 1/1/1 2/2/1 3/3/1 
f 3/3/2 4/4/2 1/1/2 
f 5/1/3 6/2/3 7/2/3 
f 7/2/4 8/1/4 5/1/4 
f 8/1/5 7/2/5 2/2/5 
f 2/2/5 1/1/5 8/1/5 
f 9/3/6 10/4/6 4/4/6 
f 4/4/7 3/3/7 9/3/7 
f 7/2/8 9/3/8 3/3/8 
f 3/3/9 2/2/9 7/2/9 
f 10/4/10 8/1/10 1/1/10 
f 1/1/11 4/4/11 10/4/11 
f 11/3/12 12/3/13 6/2/13 
f 6/2/13 13/2/13 11/3/13 
f 12/3/14 14/4/14 10/4/14 
f 10/4/15 9/3/15 12/3/15 
f 9/3/16 7/2/16 6/2/16 
f 6/2/17 12/3/17 9/3/17 
f 5/1/18 8/1/18 10/4/18 
f 10/4/19 14/4/19 5/1/19 
f 11/3/20 13/2/20 15/1/20 
f 15/1/20 16/4/20 11/3/20 
f 14/4/21 16/4/22 15/1/22 
f 15/1/22 5/1/22 14/4/22 
f 13/2/23 6/2/23 5/1/23 
f 5/1/24 15/1/24 13/2/24 
f 16/4/25 14/4/25 12/3/25 
f 12/3/26 11/3/26 16/4/26 
# 0 polygons - 28 triangles

